<svg xmlns="http://www.w3.org/2000/svg" version="1.1" width="1280" height="882">
<path d="M0 0 C1.21377319 0.00149048 2.42754639 0.00298096 3.67810059 0.0045166 C22.40576003 0.04582807 40.68787049 0.75173508 59.25 3.3125 C61.55208111 3.6054862 63.85416446 3.89845483 66.15625 4.19140625 C97.33976481 8.33680745 127.95415107 16.24518995 157.6875 26.4375 C159.41782471 27.03062988 159.41782471 27.03062988 161.18310547 27.63574219 C169.41053839 30.52302011 177.19438385 33.86009308 185.25 37.3125 C185.25 65.3625 185.25 93.4125 185.25 122.3125 C177.92949458 122.3125 177.40504858 122.28724583 172.3125 117.9375 C118.19478805 73.57845916 37.63848064 58.11635646 -30.46484375 64.5625 C-60.41025214 67.83713228 -92.71916403 79.45010676 -112.9140625 102.81640625 C-126.92944206 122.04896455 -130.05840988 143.36583868 -126.56640625 166.515625 C-123.25010053 181.9388267 -116.10673967 197.26774523 -102.76953125 206.33984375 C-92.87203332 212.57074221 -82.86543241 217.56763339 -71.75 221.25 C-70.86828125 221.55873047 -69.9865625 221.86746094 -69.078125 222.18554688 C-47.3660694 229.44734926 -24.48847741 232.93040017 -1.98556519 236.80682373 C6.08571862 238.19856732 14.15085366 239.62526625 22.21484375 241.05859375 C23.00593473 241.19919472 23.79702572 241.33979568 24.61208916 241.48465729 C150.31066018 263.87264366 150.31066018 263.87264366 185.25 313.3125 C205.07861345 345.0087966 212.0519715 385.03331811 203.88818359 421.76660156 C199.0748131 440.96852487 191.60676278 459.04790863 180.25 475.3125 C179.58097656 476.27929688 178.91195313 477.24609375 178.22265625 478.2421875 C160.84272701 502.06903066 138.23743892 518.06732335 112.25 531.3125 C111.61755371 531.63831055 110.98510742 531.96412109 110.33349609 532.29980469 C91.25700134 542.01981286 69.91791633 547.70891788 48.9375 551.5 C48.09856201 551.6549292 47.25962402 551.8098584 46.39526367 551.96948242 C27.74450063 555.14566224 8.93838771 555.68707912 -9.9375 555.625 C-11.06597351 555.62350952 -12.19444702 555.62201904 -13.3571167 555.6204834 C-81.86603463 555.45876059 -143.42284186 539.5168413 -206.75 513.3125 C-206.75 483.2825 -206.75 453.2525 -206.75 422.3125 C-200.23187676 422.3125 -198.73750426 423.43157853 -194.25 427.4375 C-174.11894092 444.42364086 -149.95793422 457.17127559 -125.75 467.3125 C-124.93225098 467.65522949 -124.11450195 467.99795898 -123.27197266 468.35107422 C-88.71097362 482.61661996 -51.14153219 491.10266276 -13.75 492.3125 C-12.62980469 492.35375 -11.50960937 492.395 -10.35546875 492.4375 C32.1439417 493.21463208 77.84281725 485.67908699 109.96875 455.69140625 C120.39875425 444.8149121 125.55093876 432.70982659 129.25 418.3125 C129.42724609 417.69850342 129.60449219 417.08450684 129.78710938 416.4519043 C133.93843602 397.26515565 129.69339545 374.19502391 119.5625 357.625 C104.75224374 336.85314692 77.57705445 329.59720755 54.25 323.3125 C53.17927246 323.01093994 52.10854492 322.70937988 51.00537109 322.39868164 C38.13478477 318.94749267 24.9902345 316.90639211 11.86077881 314.71011353 C7.56084635 313.99057362 3.2628964 313.2596589 -1.03466797 312.52612305 C-2.10710345 312.34311567 -2.10710345 312.34311567 -3.2012043 312.15641117 C-4.63851548 311.911104 -6.07582032 311.66575967 -7.51311874 311.42037773 C-10.34340275 310.93743614 -13.17387736 310.45561702 -16.00435066 309.97378635 C-76.07741353 299.74552768 -142.7275536 288.2112482 -181.1875 235.5 C-193.70525204 217.4909577 -199.62402072 196.75715507 -202.75 175.3125 C-202.94916016 173.95705078 -202.94916016 173.95705078 -203.15234375 172.57421875 C-207.22451149 137.59820271 -199.76334365 100.79505225 -177.84960938 72.66552734 C-169.18901727 62.03314943 -159.57986817 52.72322879 -148.75 44.3125 C-147.96061035 43.68456543 -147.96061035 43.68456543 -147.15527344 43.04394531 C-132.08855397 31.10912173 -114.92987663 21.58066986 -96.75 15.3125 C-95.98913086 15.04131348 -95.22826172 14.77012695 -94.44433594 14.49072266 C-83.1594581 10.50351749 -71.77334494 7.46576387 -60.0625 5 C-58.35586182 4.63648438 -58.35586182 4.63648438 -56.61474609 4.265625 C-37.79156718 0.48121192 -19.15161078 -0.0580965 0 0 Z " fill="#FFFFFF" transform="translate(890.75,138.6875)"/>
<path d="M0 0 C1.6851194 -0.01038551 1.6851194 -0.01038551 3.40428162 -0.02098083 C7.02606718 -0.03822394 10.64770652 -0.04457245 14.26953125 -0.046875 C15.50378845 -0.04821442 16.73804565 -0.04955383 18.00970459 -0.05093384 C36.91911096 -0.04647762 55.33559511 0.67253883 74.08203125 3.203125 C75.86816456 3.41294186 77.65460848 3.62013776 79.44140625 3.82421875 C177.56411133 15.68520508 177.56411133 15.68520508 199.08203125 37.203125 C199.17714391 39.85050589 199.2075876 42.47171501 199.19555664 45.11938477 C199.19570267 45.94858429 199.19584869 46.77778381 199.19599915 47.6321106 C199.19529976 50.38627698 199.18750618 53.14037661 199.1796875 55.89453125 C199.17782341 57.79882266 199.17639947 59.70311455 199.17539978 61.60740662 C199.17157388 66.62980463 199.16174298 71.65217392 199.1506958 76.67456055 C199.14048323 81.7954062 199.13590249 86.91625648 199.13085938 92.03710938 C199.12012078 102.09246057 199.10304349 112.1477904 199.08203125 122.203125 C192.50662982 122.33990862 192.50662982 122.33990862 189.5234375 119.89453125 C188.58564453 119.15154785 188.58564453 119.15154785 187.62890625 118.39355469 C186.64664063 117.58772949 186.64664063 117.58772949 185.64453125 116.765625 C173.3724396 107.15324268 160.15063259 99.85081029 146.08203125 93.203125 C144.89996094 92.64109375 143.71789062 92.0790625 142.5 91.5 C83.90896625 64.42755637 8.01406264 50.92417833 -54.16796875 73.703125 C-76.94632597 82.41515677 -97.0593734 96.13253933 -107.85546875 118.68359375 C-115.95230344 137.88380836 -115.15140437 161.28566005 -107.60546875 180.515625 C-98.44234709 200.83266559 -83.21989117 211.5340122 -62.79296875 219.515625 C-43.25275544 226.58850321 -22.85276004 230.34405668 -2.43603516 233.89953613 C1.5598249 234.59604266 5.55364927 235.30323585 9.546875 236.01464844 C10.2186742 236.13429459 10.8904734 236.25394073 11.58263016 236.37721252 C12.93683971 236.61841005 14.29104327 236.85964127 15.64524078 237.10090637 C17.65844447 237.45924225 19.67181523 237.81662426 21.6852417 238.17370605 C163.69150439 263.37706981 163.69150439 263.37706981 200.01953125 313.203125 C201.07354536 314.84900857 202.09240281 316.51774255 203.08203125 318.203125 C203.73429687 319.28464844 204.3865625 320.36617188 205.05859375 321.48046875 C222.66839145 351.79444812 225.90787588 391.96321643 217.47998047 425.60644531 C211.64785905 447.23116517 201.90691133 468.27580738 187.08203125 485.203125 C186.24929688 486.15703125 185.4165625 487.1109375 184.55859375 488.09375 C153.29850013 523.30750983 109.59496483 543.11014194 63.76953125 551.390625 C62.93059326 551.5455542 62.09165527 551.7004834 61.22729492 551.86010742 C42.57653188 555.03628724 23.77041896 555.57770412 4.89453125 555.515625 C3.76605774 555.51413452 2.63758423 555.51264404 1.47491455 555.5111084 C-49.87684394 555.38988695 -99.09840939 547.06359114 -147.78384399 530.63095093 C-149.67949664 529.99140751 -151.5773537 529.35840888 -153.4753418 528.72583008 C-166.63799376 524.2004985 -178.99346625 518.67118375 -191.91796875 513.203125 C-191.91796875 483.173125 -191.91796875 453.143125 -191.91796875 422.203125 C-185.26756225 422.203125 -185.26756225 422.203125 -180.98046875 426.265625 C-159.64455281 445.26292996 -132.29238279 458.73591172 -105.91796875 469.203125 C-104.81001953 469.65413574 -104.81001953 469.65413574 -103.6796875 470.11425781 C-70.66807282 483.48247475 -35.42392425 490.50602685 0.08203125 492.203125 C0.79858887 492.23776855 1.51514648 492.27241211 2.25341797 492.30810547 C6.87329621 492.49438155 11.4658156 492.40642004 16.08203125 492.203125 C17.06977539 492.16203613 18.05751953 492.12094727 19.07519531 492.07861328 C48.87793911 490.70962901 76.74868416 485.517039 103.08203125 471.203125 C103.98179687 470.73390625 104.8815625 470.2646875 105.80859375 469.78125 C123.63784774 459.9083732 136.60333354 444.09086531 142.4921875 424.5078125 C147.86088188 403.53079471 146.63574387 379.32901636 135.97265625 360.17578125 C125.14954963 343.15845866 106.44800851 334.91683393 87.95703125 328.640625 C87.16538574 328.37161377 86.37374023 328.10260254 85.55810547 327.82543945 C69.8543903 322.68090607 53.911405 319.230824 37.64453125 316.453125 C35.70868326 316.11545693 33.77297723 315.77697419 31.83740234 315.43774414 C22.25058343 313.76267656 12.65682691 312.12899286 3.06111145 310.50576782 C-127.15465618 288.47182971 -127.15465618 288.47182971 -165.62646484 236.046875 C-176.23325981 220.90462253 -183.4484078 203.31053776 -186.91796875 185.203125 C-187.22927734 183.59050781 -187.22927734 183.59050781 -187.546875 181.9453125 C-190.84485226 160.95818446 -190.74628567 137.67646503 -184.91796875 117.203125 C-184.64509033 116.20273193 -184.64509033 116.20273193 -184.36669922 115.18212891 C-173.59903913 76.56674023 -143.83114525 47.10033339 -109.71875 27.7890625 C-100.7291115 22.83953836 -91.57499828 18.69239654 -81.91796875 15.203125 C-81.24217773 14.9546582 -80.56638672 14.70619141 -79.87011719 14.45019531 C-54.46674403 5.20088224 -27.04296649 0.11262353 0 0 Z " fill="#FFFFFF" transform="translate(380.91796875,138.796875)"/>
</svg>